<svg width="549" height="107" viewBox="0 0 549 107" fill="none" xmlns="http://www.w3.org/2000/svg">
<path d="M132.6 81.72C128.493 81.72 124.6 81.1867 120.92 80.12C117.293 79 114.333 77.5067 112.04 75.64C110.813 74.7333 110.2 73.4533 110.2 71.8C110.2 70.68 110.52 69.72 111.16 68.92C111.853 68.0667 112.653 67.64 113.56 67.64C114.52 67.64 115.613 68.0133 116.84 68.76C119.133 70.4133 121.533 71.6133 124.04 72.36C126.547 73.1067 129.32 73.48 132.36 73.48C136.253 73.48 139.24 72.8133 141.32 71.48C143.4 70.0933 144.44 68.0933 144.44 65.48C144.44 63.4533 143.453 61.9067 141.48 60.84C139.56 59.72 136.333 58.6533 131.8 57.64C127.107 56.6267 123.293 55.4533 120.36 54.12C117.427 52.7867 115.213 51.08 113.72 49C112.227 46.92 111.48 44.28 111.48 41.08C111.48 37.7733 112.413 34.8133 114.28 32.2C116.147 29.5867 118.733 27.56 122.04 26.12C125.4 24.6267 129.16 23.88 133.32 23.88C140.947 23.88 147.16 25.9067 151.96 29.96C152.653 30.5467 153.133 31.1333 153.4 31.72C153.72 32.2533 153.88 32.9467 153.88 33.8C153.88 34.92 153.533 35.9067 152.84 36.76C152.2 37.56 151.427 37.96 150.52 37.96C149.987 37.96 149.48 37.88 149 37.72C148.573 37.56 147.987 37.2667 147.24 36.84C145.053 35.24 142.92 34.0667 140.84 33.32C138.813 32.52 136.307 32.12 133.32 32.12C129.693 32.12 126.813 32.8667 124.68 34.36C122.6 35.8 121.56 37.8267 121.56 40.44C121.56 42.6267 122.493 44.3067 124.36 45.48C126.227 46.6533 129.4 47.7467 133.88 48.76C138.627 49.8267 142.467 51.0267 145.4 52.36C148.387 53.64 150.653 55.2933 152.2 57.32C153.8 59.3467 154.6 61.88 154.6 64.92C154.6 68.2267 153.667 71.16 151.8 73.72C149.987 76.2267 147.4 78.2 144.04 79.64C140.733 81.0267 136.92 81.72 132.6 81.72ZM189.216 81.72C183.722 81.72 178.949 80.5467 174.896 78.2C170.896 75.8533 167.802 72.4933 165.616 68.12C163.429 63.7467 162.336 58.6267 162.336 52.76C162.336 46.8933 163.402 41.8 165.536 37.48C167.722 33.1067 170.842 29.7467 174.896 27.4C178.949 25.0533 183.722 23.88 189.216 23.88C194.709 23.88 199.456 25.0533 203.456 27.4C207.509 29.7467 210.602 33.1067 212.736 37.48C214.922 41.8 216.016 46.8933 216.016 52.76C216.016 58.6267 214.922 63.7467 212.736 68.12C210.549 72.4933 207.429 75.8533 203.376 78.2C199.376 80.5467 194.656 81.72 189.216 81.72ZM189.216 73.48C194.389 73.48 198.416 71.6933 201.296 68.12C204.229 64.5467 205.696 59.4267 205.696 52.76C205.696 46.0933 204.229 41 201.296 37.48C198.416 33.9067 194.389 32.12 189.216 32.12C183.989 32.12 179.909 33.9067 176.976 37.48C174.096 41 172.656 46.0933 172.656 52.76C172.656 59.4267 174.096 64.5467 176.976 68.12C179.909 71.6933 183.989 73.48 189.216 73.48ZM241.56 81.4C239.96 81.4 238.68 80.9467 237.72 80.04C236.813 79.08 236.36 77.8267 236.36 76.28V33.08H221.8C218.6 33.08 217 31.6667 217 28.84C217 26.0133 218.6 24.6 221.8 24.6H261.24C264.44 24.6 266.04 26.0133 266.04 28.84C266.04 31.6667 264.44 33.08 261.24 33.08H246.68V76.28C246.68 77.8267 246.2 79.08 245.24 80.04C244.333 80.9467 243.107 81.4 241.56 81.4ZM293.903 81.72C288.41 81.72 283.636 80.5467 279.583 78.2C275.583 75.8533 272.49 72.4933 270.303 68.12C268.116 63.7467 267.023 58.6267 267.023 52.76C267.023 46.8933 268.09 41.8 270.223 37.48C272.41 33.1067 275.53 29.7467 279.583 27.4C283.636 25.0533 288.41 23.88 293.903 23.88C299.396 23.88 304.143 25.0533 308.143 27.4C312.196 29.7467 315.29 33.1067 317.423 37.48C319.61 41.8 320.703 46.8933 320.703 52.76C320.703 58.6267 319.61 63.7467 317.423 68.12C315.236 72.4933 312.116 75.8533 308.063 78.2C304.063 80.5467 299.343 81.72 293.903 81.72ZM293.903 73.48C299.076 73.48 303.103 71.6933 305.983 68.12C308.916 64.5467 310.383 59.4267 310.383 52.76C310.383 46.0933 308.916 41 305.983 37.48C303.103 33.9067 299.076 32.12 293.903 32.12C288.676 32.12 284.596 33.9067 281.663 37.48C278.783 41 277.343 46.0933 277.343 52.76C277.343 59.4267 278.783 64.5467 281.663 68.12C284.596 71.6933 288.676 73.48 293.903 73.48ZM381.207 24.2C382.7 24.2 383.9 24.68 384.807 25.64C385.714 26.5467 386.167 27.7733 386.167 29.32V76.68C386.167 78.1733 385.74 79.3467 384.887 80.2C384.034 81.0533 382.914 81.48 381.527 81.48C380.14 81.48 379.047 81.0533 378.247 80.2C377.447 79.3467 377.047 78.1733 377.047 76.68V43.72L363.447 69.48C362.807 70.6533 362.114 71.5333 361.367 72.12C360.62 72.6533 359.74 72.92 358.727 72.92C357.714 72.92 356.834 72.6533 356.087 72.12C355.34 71.5867 354.647 70.7067 354.007 69.48L340.327 44.12V76.68C340.327 78.12 339.9 79.2933 339.047 80.2C338.247 81.0533 337.154 81.48 335.767 81.48C334.38 81.48 333.287 81.0533 332.487 80.2C331.687 79.3467 331.287 78.1733 331.287 76.68V29.32C331.287 27.7733 331.714 26.5467 332.567 25.64C333.474 24.68 334.674 24.2 336.167 24.2C338.247 24.2 339.874 25.3467 341.047 27.64L358.807 61.48L376.487 27.64C377.66 25.3467 379.234 24.2 381.207 24.2ZM449.513 74.84C449.833 75.5333 449.993 76.2267 449.993 76.92C449.993 78.1467 449.486 79.1867 448.473 80.04C447.513 80.8933 446.393 81.32 445.113 81.32C444.259 81.32 443.459 81.1067 442.713 80.68C441.966 80.2 441.379 79.48 440.953 78.52L436.153 67.8H407.993L403.193 78.52C402.766 79.48 402.179 80.2 401.433 80.68C400.686 81.1067 399.859 81.32 398.953 81.32C397.726 81.32 396.606 80.8933 395.593 80.04C394.579 79.1867 394.073 78.1467 394.073 76.92C394.073 76.2267 394.233 75.5333 394.553 74.84L416.633 27.4C417.113 26.3333 417.833 25.5333 418.793 25C419.806 24.4133 420.873 24.12 421.993 24.12C423.113 24.12 424.153 24.4133 425.113 25C426.126 25.5333 426.873 26.3333 427.353 27.4L449.513 74.84ZM411.513 59.8H432.633L422.073 36.04L411.513 59.8ZM469.294 81.4C467.694 81.4 466.414 80.9467 465.454 80.04C464.548 79.08 464.094 77.8267 464.094 76.28V33.08H449.534C446.334 33.08 444.734 31.6667 444.734 28.84C444.734 26.0133 446.334 24.6 449.534 24.6H488.974C492.174 24.6 493.774 26.0133 493.774 28.84C493.774 31.6667 492.174 33.08 488.974 33.08H474.414V76.28C474.414 77.8267 473.934 79.08 472.974 80.04C472.068 80.9467 470.841 81.4 469.294 81.4ZM504.837 81C503.29 81 502.064 80.5733 501.157 79.72C500.304 78.8667 499.877 77.6667 499.877 76.12V29.48C499.877 27.9333 500.304 26.7333 501.157 25.88C502.064 25.0267 503.29 24.6 504.837 24.6H533.717C535.264 24.6 536.464 24.9467 537.317 25.64C538.17 26.3333 538.597 27.32 538.597 28.6C538.597 29.9333 538.17 30.9733 537.317 31.72C536.464 32.4133 535.264 32.76 533.717 32.76H509.957V48.28H532.117C533.664 48.28 534.864 48.6267 535.717 49.32C536.57 50.0133 536.997 51.0267 536.997 52.36C536.997 53.64 536.57 54.6267 535.717 55.32C534.864 56.0133 533.664 56.36 532.117 56.36H509.957V72.84H533.717C535.264 72.84 536.464 73.2133 537.317 73.96C538.17 74.6533 538.597 75.6667 538.597 77C538.597 78.28 538.17 79.2667 537.317 79.96C536.464 80.6533 535.264 81 533.717 81H504.837Z" fill="white"/>
<path fill-rule="evenodd" clip-rule="evenodd" d="M41.5 29.0651C38.5754 34.3569 34.2034 37.7172 29.3182 37.7172C21.719 37.7172 15.3615 29.5861 13.7624 18.7022C5.31339 31.2281 0 47.7989 0 61.1635C0 78.204 8.63823 93.0446 21.4004 100.763C21.6982 91.5888 24.3344 84.5361 29.0716 78.5199C32.1846 74.5663 35.9564 71.4265 39.0371 68.8619L39.2963 68.6461C42.624 65.8748 45.5244 63.4442 48.2479 60.325C53.6744 54.1103 58.9069 43.3198 62.9524 33.1279C64.9052 28.208 66.4664 23.7291 67.5383 20.4816C67.9109 19.3528 68.223 18.377 68.4705 17.5883C61.4923 7.66643 52.5088 0.527953 42.6694 0C44.3086 3.83174 45.2617 8.41215 45.2617 13.333C45.2617 19.3285 43.8469 24.8187 41.5 29.0651ZM80.3965 43.3357C76.2968 53.2686 70.466 65.2874 63.3132 73.4794C59.491 77.8568 55.5048 81.1758 52.3218 83.8259L52.0952 84.0145C48.6749 86.863 46.4646 88.7597 44.7851 90.8926C42.7787 93.4408 40.7329 97.2603 41.5446 106.415C64.4439 106.389 83 86.139 83 61.1635C83 55.602 82.0799 49.4852 80.3965 43.3357Z" fill="white"/>
</svg>
